<svg width="40" height="41" viewBox="0 0 40 41" fill="none" xmlns="http://www.w3.org/2000/svg">
<path d="M28.05 28.6127L27.35 27.9127C26.65 27.2127 25.65 26.8127 24.65 26.8127C23.65 26.8127 22.65 27.2127 21.95 27.9127C21.05 28.8127 19.55 28.8127 18.65 27.9127L12.35 21.6127C11.95 21.2127 11.65 20.6127 11.65 19.9127C11.65 19.3127 11.85 18.7127 12.35 18.2127C13.85 16.7127 13.85 14.3127 12.35 12.8127L11.65 12.1127C10.95 11.4127 9.95001 11.0127 8.95001 11.0127C7.95001 11.0127 7.05 11.4127 6.25 12.1127C3.25 15.1127 3.25 20.0127 6.25 23.0127L17.25 34.0127C20.25 37.0127 25.15 37.0127 28.15 34.0127C29.55 32.5127 29.55 30.1127 28.05 28.6127Z" stroke="#F7788D" stroke-miterlimit="10" stroke-linecap="round" stroke-linejoin="round"/>
<path d="M32.15 29.7126C37.05 24.8126 37.55 14.5126 31.55 8.51259C25.55 2.51259 15.35 3.01259 10.35 7.91259" stroke="#F7788D" stroke-miterlimit="10" stroke-linecap="round" stroke-linejoin="round"/>
<path d="M15.1499 11.4121C17.7499 8.81215 23.7499 9.01215 27.4499 12.7121C31.1499 16.4121 31.3499 22.4121 28.7499 25.0121" stroke="#F7788D" stroke-miterlimit="10" stroke-linecap="round" stroke-linejoin="round"/>
</svg>
