<svg width="74" height="74" viewBox="0 0 74 74" fill="none" xmlns="http://www.w3.org/2000/svg">
<g clip-path="url(#clip0_46_462)">
<path d="M32.625 57C29.1453 56.996 25.8092 55.6119 23.3486 53.1514C20.8881 50.6908 19.504 47.3547 19.5 43.875C19.5 36.8325 31.625 21.6281 32.1375 20.9844C32.1981 20.9146 32.273 20.8586 32.3571 20.8202C32.4412 20.7819 32.5326 20.762 32.625 20.762C32.7174 20.762 32.8088 20.7819 32.8929 20.8202C32.977 20.8586 33.0519 20.9146 33.1125 20.9844C33.6281 21.6281 45.75 36.8325 45.75 43.875C45.746 47.3547 44.3619 50.6908 41.9014 53.1514C39.4408 55.6119 36.1047 56.996 32.625 57ZM32.625 22.3875C30.3319 25.34 20.75 38.03 20.75 43.875C20.75 47.0244 22.0011 50.0449 24.2281 52.2719C26.4551 54.4989 29.4756 55.75 32.625 55.75C35.7744 55.75 38.7949 54.4989 41.0219 52.2719C43.2489 50.0449 44.5 47.0244 44.5 43.875C44.5 38.0287 34.9181 25.3394 32.625 22.3875ZM47.195 47.7206C49.3223 47.0242 51.1747 45.6725 52.4868 43.859C53.799 42.0456 54.5037 39.8634 54.5 37.625C54.5 31.9725 44.8019 17.8675 44.3894 17.27C44.3319 17.1867 44.2551 17.1186 44.1655 17.0716C44.0759 17.0246 43.9762 17 43.875 17C43.7738 17 43.6741 17.0246 43.5845 17.0716C43.4949 17.1186 43.4181 17.1867 43.3606 17.27C43.335 17.3075 40.7406 21.0706 38.22 25.4375C38.1371 25.5811 38.1147 25.7518 38.1576 25.912C38.2006 26.0721 38.3054 26.2087 38.4491 26.2916C38.5927 26.3744 38.7634 26.3969 38.9235 26.3539C39.0837 26.311 39.2202 26.2061 39.3031 26.0625C41.1306 22.8956 43 20.0487 43.875 18.74C45.905 21.7737 53.25 33.0625 53.25 37.625C53.2533 39.6001 52.6315 41.5256 51.4737 43.1257C50.3159 44.7259 48.6814 45.9186 46.8044 46.5331C46.7264 46.5588 46.6542 46.5995 46.592 46.6531C46.5298 46.7066 46.4787 46.7719 46.4417 46.8451C46.4047 46.9184 46.3825 46.9982 46.3764 47.0801C46.3702 47.162 46.3803 47.2442 46.4059 47.3222C46.4316 47.4002 46.4723 47.4723 46.5259 47.5345C46.5794 47.5968 46.6447 47.6478 46.718 47.6848C46.7912 47.7218 46.8711 47.744 46.9529 47.7502C47.0348 47.7563 47.117 47.7463 47.195 47.7206Z" fill="#808080"/>
</g>
<line x1="60.3891" y1="8.31401" x2="14.3891" y2="65.314" stroke="#808080"/>
<rect x="0.5" y="0.5" width="73" height="73" rx="36.5" stroke="#808080"/>
<defs>
<clipPath id="clip0_46_462">
<rect width="40" height="40" fill="white" transform="translate(17 17)"/>
</clipPath>
</defs>
</svg>
