<svg width="74" height="74" viewBox="0 0 74 74" fill="none" xmlns="http://www.w3.org/2000/svg">
<g clip-path="url(#clip0_46_445)">
<path d="M33.6351 43.3209C33.4564 43.2791 33.2683 43.3091 33.1115 43.4046C32.9547 43.5001 32.8417 43.6533 32.7968 43.8313C32.7519 44.0093 32.7787 44.1979 32.8715 44.3563C32.9643 44.5147 33.1156 44.6303 33.2928 44.6782C34.9073 45.186 36.2546 46.3133 37.0392 47.8128C37.0799 47.8958 37.1365 47.9699 37.206 48.0308C37.2754 48.0918 37.3562 48.1384 37.4437 48.168C37.5312 48.1975 37.6237 48.2095 37.7159 48.2032C37.8081 48.1968 37.8981 48.1723 37.9807 48.131C38.0634 48.0897 38.137 48.0324 38.1974 47.9625C38.2578 47.8926 38.3038 47.8115 38.3327 47.7237C38.3616 47.636 38.3728 47.5434 38.3658 47.4513C38.3587 47.3592 38.3335 47.2693 38.2915 47.187C37.8167 46.2615 37.1594 45.4418 36.3591 44.7773C35.5588 44.1128 34.6322 43.6174 33.6351 43.3209Z" fill="#808080"/>
<path d="M49.8723 43.8648C51.0525 43.2684 51.1617 42.2443 51.2499 41.4211C51.2721 40.9516 51.3788 40.4899 51.5649 40.0582C51.7049 39.7831 51.9191 39.3694 52.1816 38.8724C53.7139 35.9653 55.0894 33.2577 55.0894 32.0663C55.0894 31.8143 55.1153 31.563 55.1398 31.3061C55.2913 30.4606 55.2204 29.5901 54.9341 28.7802C54.6478 27.9703 54.1559 27.2487 53.5067 26.6861C52.8972 26.0347 52.104 25.5841 51.2324 25.3939C50.8802 25.3285 50.567 25.1295 50.3582 24.8384C50.1495 24.5473 50.0614 24.1868 50.1124 23.8322C50.1974 23.323 50.2456 22.8084 50.2566 22.2922C50.2566 20.6122 48.7411 18.7985 45.414 18.7985C44.796 18.7921 44.1799 18.8684 43.5821 19.0253C43.2827 19.1121 42.9627 19.0933 42.6755 18.9721C42.3884 18.8509 42.1516 18.6346 42.005 18.3596C41.6102 17.6036 41.0046 16.9784 40.2616 16.5596C39.5187 16.1407 38.6702 15.9463 37.819 15.9999C37.4536 15.9999 34.2063 16.051 32.8567 17.7982C32.7004 17.9791 32.4985 18.1148 32.272 18.1913C32.0455 18.2677 31.8026 18.2821 31.5687 18.2329C30.481 18.0472 29.3636 18.2912 28.4523 18.9133C26.031 20.5464 25.3723 22.3223 26.0926 25.2483C26.7065 27.7319 28.1436 33.5461 28.1436 34.8579C27.8628 35.7392 27.4828 36.5858 27.011 37.3814C26.591 38.192 26.1647 39.0103 25.821 39.7908C24.1817 39.2357 22.4508 39.0011 20.7229 39.0999C20.021 39.1379 19.3591 39.4384 18.8686 39.9419C18.3781 40.4454 18.0949 41.1149 18.0752 41.8175C18.0555 42.5202 18.3009 43.2045 18.7625 43.7346C19.224 44.2647 19.8681 44.6018 20.5668 44.6789C21.61 44.805 22.6158 45.1459 23.5208 45.6799C24.3783 46.1251 25.0391 46.8738 25.3744 47.7799C25.9474 49.0433 26.7301 50.2007 27.6893 51.2029C28.3521 51.9376 29.0958 52.5951 29.9062 53.1629C30.9275 53.9608 31.6418 55.0869 31.9285 56.3507C32.0311 56.8176 32.2899 57.2355 32.6622 57.5354C33.0345 57.8353 33.498 57.9991 33.976 57.9999H44.679C45.2014 58.0012 45.7057 57.8086 46.0943 57.4595C46.4828 57.1104 46.7281 56.6295 46.7825 56.1099C46.8177 55.4345 47.0112 54.7767 47.3474 54.1898C48.8384 51.9519 48.914 50.456 48.914 48.1999C48.914 47.3599 48.9105 46.4289 48.907 45.5147C48.907 44.9974 48.9028 44.4906 48.9014 44.0076C49.232 44.0611 49.5711 44.0112 49.8723 43.8648ZM28.2535 38.0289C29.0774 36.4441 29.5436 35.5152 29.5436 34.8593C29.5436 33.5573 28.5384 29.3097 27.452 24.9137C26.8682 22.5547 27.3022 21.3794 29.2349 20.0753C29.7067 19.7492 30.2665 19.5744 30.84 19.5741C31.0084 19.5744 31.1765 19.5885 31.3426 19.6161C31.8258 19.7071 32.3245 19.6658 32.7862 19.4968C33.2478 19.3277 33.6553 19.0372 33.9655 18.6557C34.7551 17.6323 37.0154 17.4034 37.8197 17.3999C38.4144 17.3528 39.01 17.48 39.5336 17.7659C40.0572 18.0518 40.4862 18.4841 40.7681 19.0099C41.0634 19.5668 41.5408 20.0056 42.1205 20.253C42.7003 20.5004 43.3474 20.5415 43.9538 20.3693C44.4305 20.2454 44.9215 20.1859 45.414 20.1922C47.7793 20.1922 48.8566 21.2772 48.8566 22.2859C48.8452 22.7317 48.8021 23.1762 48.7278 23.6159C48.6219 24.3272 48.7952 25.0518 49.2116 25.6381C49.628 26.2243 50.2551 26.6268 50.9615 26.761C51.5573 26.899 52.0975 27.2137 52.5113 27.664C53.0154 28.0804 53.3967 28.6262 53.6143 29.2427C53.832 29.8593 53.8778 30.5234 53.7468 31.164C53.7174 31.4664 53.6894 31.7625 53.6894 32.0593C53.6894 33.0029 51.7644 36.6541 50.9426 38.213C50.6738 38.7226 50.4526 39.1482 50.3126 39.431C50.0513 40.0096 49.8983 40.6312 49.8611 41.265C49.7729 42.0889 49.705 42.3745 49.2437 42.6083C48.9035 42.7826 47.71 41.9433 46.9974 41.4435C45.8018 40.6035 44.5663 39.7397 43.3455 39.7397C42.8148 39.7419 42.2931 39.8774 41.8284 40.1336C41.3636 40.3898 40.9707 40.7586 40.6855 41.2062C40.3166 41.6619 40.1528 41.8362 39.891 41.8362C38.561 41.8362 36.7312 41.8362 35.5559 40.6462C35.3465 40.4223 35.0848 40.254 34.7942 40.1562C34.5037 40.0585 34.1934 40.0344 33.8913 40.0862C32.2974 40.3438 30.8372 42.5131 30.2884 43.624C30.2541 43.694 30.1484 43.904 29.7123 43.974C29.1334 43.9977 28.5559 43.9005 28.0166 43.6888C27.4773 43.477 26.988 43.1553 26.5798 42.7441C26.0681 42.231 27.599 39.2861 28.2535 38.0289ZM47.507 45.5189C47.5105 46.4289 47.514 47.3641 47.514 48.1992C47.514 50.3118 47.4552 51.5025 46.184 53.4107C45.7151 54.1896 45.4427 55.0708 45.3902 55.9783C45.3707 56.152 45.2869 56.3121 45.1552 56.4272C45.0236 56.5422 44.8537 56.6038 44.679 56.5999H33.976C33.8147 56.5978 33.6589 56.5405 33.5347 56.4376C33.4104 56.3347 33.325 56.1924 33.2928 56.0343C32.9283 54.444 32.023 53.0295 30.7315 52.0324C29.9948 51.5169 29.3188 50.9197 28.7162 50.2523C27.8524 49.3516 27.1488 48.31 26.6358 47.1723C26.1809 46.0126 25.3264 45.0537 24.2264 44.4689C23.1571 43.8376 21.9684 43.4352 20.7355 43.2873C20.3886 43.2458 20.0697 43.0761 19.8416 42.8114C19.6134 42.5468 19.4924 42.2064 19.5024 41.8572C19.5124 41.5079 19.6527 41.175 19.8956 40.9239C20.1385 40.6728 20.4666 40.5215 20.8153 40.4999C22.3437 40.4189 23.8736 40.6294 25.3233 41.1201C25.0013 42.2009 24.9859 43.1284 25.5837 43.7339C26.6114 44.7447 27.9775 45.3384 29.4176 45.3999C29.591 45.4004 29.7643 45.387 29.9356 45.36C30.2743 45.3204 30.5981 45.1984 30.8787 45.0048C31.1594 44.8111 31.3883 44.5517 31.5456 44.2491C32.1455 43.036 33.3488 41.5968 34.1167 41.4729C34.199 41.4578 34.2839 41.4651 34.3624 41.4942C34.4409 41.5233 34.51 41.573 34.5626 41.6381C36.1488 43.2425 38.4021 43.2425 39.8931 43.2425C40.2766 43.2172 40.6483 43.0993 40.9763 42.899C41.3044 42.6987 41.579 42.422 41.7768 42.0924C41.9335 41.8121 42.1606 41.5775 42.4357 41.4118C42.7108 41.246 43.0244 41.1549 43.3455 41.1474C44.1246 41.1474 45.2236 41.9174 46.1931 42.5978C46.6397 42.9107 47.0772 43.2124 47.5035 43.4616C47.5 44.0986 47.5042 44.8014 47.507 45.5196V45.5189Z" fill="#808080"/>
<path d="M34.9 23.7C35.2866 23.7 35.6 23.3866 35.6 23C35.6 22.6134 35.2866 22.3 34.9 22.3C34.5134 22.3 34.2 22.6134 34.2 23C34.2 23.3866 34.5134 23.7 34.9 23.7Z" fill="#808080"/>
<path d="M31.4 28.6C31.7866 28.6 32.1 28.2866 32.1 27.9C32.1 27.5134 31.7866 27.2 31.4 27.2C31.0134 27.2 30.7 27.5134 30.7 27.9C30.7 28.2866 31.0134 28.6 31.4 28.6Z" fill="#808080"/>
<path d="M45.4 32.7999C45.7866 32.7999 46.1 32.4865 46.1 32.0999C46.1 31.7133 45.7866 31.3999 45.4 31.3999C45.0134 31.3999 44.7 31.7133 44.7 32.0999C44.7 32.4865 45.0134 32.7999 45.4 32.7999Z" fill="#808080"/>
<path d="M37.7 32.1C38.0866 32.1 38.4 31.7866 38.4 31.4C38.4 31.0134 38.0866 30.7 37.7 30.7C37.3134 30.7 37 31.0134 37 31.4C37 31.7866 37.3134 32.1 37.7 32.1Z" fill="#808080"/>
<path d="M31.4 39.1C31.7866 39.1 32.1 38.7866 32.1 38.4C32.1 38.0134 31.7866 37.7 31.4 37.7C31.0134 37.7 30.7 38.0134 30.7 38.4C30.7 38.7866 31.0134 39.1 31.4 39.1Z" fill="#808080"/>
<path d="M44 27.2C44.3866 27.2 44.7 26.8866 44.7 26.5C44.7 26.1134 44.3866 25.8 44 25.8C43.6134 25.8 43.3 26.1134 43.3 26.5C43.3 26.8866 43.6134 27.2 44 27.2Z" fill="#808080"/>
<path d="M39.1 38.4C39.4866 38.4 39.8 38.0866 39.8 37.7C39.8 37.3134 39.4866 37 39.1 37C38.7134 37 38.4 37.3134 38.4 37.7C38.4 38.0866 38.7134 38.4 39.1 38.4Z" fill="#808080"/>
<path d="M47.5 39.1C47.8866 39.1 48.2 38.7866 48.2 38.4C48.2 38.0134 47.8866 37.7 47.5 37.7C47.1134 37.7 46.8 38.0134 46.8 38.4C46.8 38.7866 47.1134 39.1 47.5 39.1Z" fill="#808080"/>
<path d="M51.7 31.4C52.0866 31.4 52.4 31.0866 52.4 30.7C52.4 30.3134 52.0866 30 51.7 30C51.3134 30 51 30.3134 51 30.7C51 31.0866 51.3134 31.4 51.7 31.4Z" fill="#808080"/>
</g>
<line x1="60.3891" y1="8.31401" x2="14.3891" y2="65.314" stroke="#808080"/>
<rect x="0.5" y="0.5" width="73" height="73" rx="36.5" stroke="#808080"/>
<defs>
<clipPath id="clip0_46_445">
<rect width="42" height="42" fill="white" transform="translate(16 16)"/>
</clipPath>
</defs>
</svg>
