<svg width="42" height="43" viewBox="0 0 42 43" fill="none" xmlns="http://www.w3.org/2000/svg">
<path d="M11.375 32.7188H7.875C7.392 32.7188 7 32.3268 7 31.8438C7 31.3608 7.392 30.9688 7.875 30.9688H11.375C11.858 30.9688 12.25 31.3608 12.25 31.8438C12.25 32.3268 11.858 32.7188 11.375 32.7188Z" fill="#242424"/>
<path d="M39.8125 32.7188H37.625C37.142 32.7188 36.75 32.3267 36.75 31.8438C36.75 31.3608 37.142 30.9688 37.625 30.9688H39.0862L40.2657 24.6827C40.25 21.4662 37.5025 18.7188 34.125 18.7188H28.3797L25.5955 30.9688H30.625C31.108 30.9688 31.5 31.3608 31.5 31.8438C31.5 32.3267 31.108 32.7188 30.625 32.7188H24.5C24.234 32.7188 23.982 32.598 23.8157 32.3898C23.6495 32.1833 23.5865 31.9102 23.646 31.6512L26.8275 17.6513C26.9185 17.2505 27.272 16.9688 27.6815 16.9688H34.125C38.4667 16.9688 42 20.502 42 24.8438L40.6717 32.0047C40.5947 32.4195 40.2342 32.7188 39.8125 32.7188Z" fill="#242424"/>
<path d="M34.125 36.2188C31.7135 36.2188 29.75 34.257 29.75 31.8438C29.75 29.4305 31.7135 27.4688 34.125 27.4688C36.5365 27.4688 38.5 29.4305 38.5 31.8438C38.5 34.257 36.5365 36.2188 34.125 36.2188ZM34.125 29.2188C32.6777 29.2188 31.5 30.3965 31.5 31.8438C31.5 33.291 32.6777 34.4688 34.125 34.4688C35.5722 34.4688 36.75 33.291 36.75 31.8438C36.75 30.3965 35.5722 29.2188 34.125 29.2188Z" fill="#242424"/>
<path d="M14.875 36.2188C12.4635 36.2188 10.5 34.257 10.5 31.8438C10.5 29.4305 12.4635 27.4688 14.875 27.4688C17.2865 27.4688 19.25 29.4305 19.25 31.8438C19.25 34.257 17.2865 36.2188 14.875 36.2188ZM14.875 29.2188C13.4277 29.2188 12.25 30.3965 12.25 31.8438C12.25 33.291 13.4277 34.4688 14.875 34.4688C16.3222 34.4688 17.5 33.291 17.5 31.8438C17.5 30.3965 16.3222 29.2188 14.875 29.2188Z" fill="#242424"/>
<path d="M11.375 13.6875H4.375C3.892 13.6875 3.5 13.2955 3.5 12.8125C3.5 12.3295 3.892 11.9375 4.375 11.9375H11.375C11.858 11.9375 12.25 12.3295 12.25 12.8125C12.25 13.2955 11.858 13.6875 11.375 13.6875Z" fill="#242424"/>
<path d="M11.375 18.9375H2.625C2.142 18.9375 1.75 18.5455 1.75 18.0625C1.75 17.5795 2.142 17.1875 2.625 17.1875H11.375C11.858 17.1875 12.25 17.5795 12.25 18.0625C12.25 18.5455 11.858 18.9375 11.375 18.9375Z" fill="#242424"/>
<path d="M11.375 24.1875H0.875C0.392 24.1875 0 23.7955 0 23.3125C0 22.8295 0.392 22.4375 0.875 22.4375H11.375C11.858 22.4375 12.25 22.8295 12.25 23.3125C12.25 23.7955 11.858 24.1875 11.375 24.1875Z" fill="#242424"/>
<path d="M25.375 29H19.25C18.767 29 18.375 28.608 18.375 28.125C18.375 27.642 18.767 27.25 19.25 27.25H24.6768L29.0903 8H9.1875C8.7045 8 8.3125 7.608 8.3125 7.125C8.3125 6.642 8.7045 6.25 9.1875 6.25H30.1875C30.4535 6.25 30.7055 6.37075 30.8718 6.579C31.038 6.7855 31.101 7.0585 31.0415 7.3175L26.229 28.3175C26.138 28.7182 25.7828 29 25.375 29Z" fill="#242424"/>
</svg>
