<svg width="48" height="49" viewBox="0 0 48 49" fill="none" xmlns="http://www.w3.org/2000/svg">
<path d="M31.5 19.709C30.9383 19.9579 30.3425 20.1213 29.7323 20.1935C30.3752 19.809 30.8564 19.2039 31.086 18.491C30.482 18.8498 29.8209 19.1025 29.1315 19.238C28.7091 18.7883 28.1614 18.4759 27.5593 18.3413C26.9572 18.2067 26.3285 18.256 25.7548 18.483C25.1812 18.71 24.6889 19.1041 24.3419 19.6143C23.9949 20.1244 23.8092 20.727 23.8088 21.344C23.8084 21.5799 23.8348 21.8152 23.8875 22.0452C22.6641 21.9838 21.4673 21.6658 20.3747 21.1119C19.2821 20.558 18.3182 19.7805 17.5455 18.83C17.152 19.5075 17.0314 20.3095 17.2084 21.0728C17.3853 21.8361 17.8465 22.5032 18.498 22.9385C18.009 22.9235 17.5306 22.7915 17.103 22.5537V22.5927C17.1032 23.3033 17.3491 23.992 17.7991 24.5419C18.2491 25.0919 18.8755 25.4692 19.572 25.61C19.3078 25.6818 19.0351 25.7179 18.7613 25.7172C18.5668 25.7173 18.3727 25.6992 18.1815 25.6632C18.3781 26.2746 18.7607 26.8093 19.276 27.1925C19.7913 27.5757 20.4135 27.7884 21.0555 27.8007C19.7651 28.8107 18.1271 29.2683 16.5 29.0735C17.9071 29.978 19.5449 30.4581 21.2175 30.4565C22.3694 30.4642 23.5113 30.2431 24.5769 29.8059C25.6426 29.3686 26.6107 28.7241 27.4252 27.9095C28.2396 27.095 28.8841 26.1268 29.3212 25.0611C29.7584 23.9954 29.9794 22.8535 29.9715 21.7017C29.9715 21.5682 29.9683 21.4357 29.9618 21.3042C30.5652 20.868 31.0861 20.3278 31.5 19.709Z" fill="white"/>
<rect x="0.5" y="0.861816" width="47" height="47" rx="23.5" stroke="white" stroke-opacity="0.5"/>
</svg>
