<svg width="40" height="41" viewBox="0 0 40 41" fill="none" xmlns="http://www.w3.org/2000/svg">
<path d="M31.0833 39.625C30.9757 39.625 30.8664 39.6028 30.7667 39.5585C30.4563 39.4239 23.1665 36.1637 23.1665 29.5025V23.9038C23.1665 23.5681 23.3803 23.2672 23.6969 23.1564L30.8221 20.6689C30.9915 20.6104 31.1752 20.6104 31.3446 20.6689L38.4697 23.1564C38.7864 23.2672 39.0001 23.5681 39.0001 23.9038V29.5025C39.0001 36.1653 31.7103 39.4239 31.4 39.5585C31.3002 39.6028 31.191 39.625 31.0833 39.625ZM24.7499 24.4658V29.5025C24.7499 34.4189 29.758 37.2832 31.0817 37.9545C32.4054 37.2816 37.4168 34.4046 37.4168 29.5025V24.4658L31.0833 22.2555L24.7499 24.4658Z" fill="#242424"/>
<path d="M30.4356 32.9254C30.4213 32.9254 30.4055 32.9254 30.3928 32.9238C30.1617 32.9112 29.9511 32.8003 29.8101 32.6183L27.2182 29.2694C26.9506 28.9227 27.0139 28.4255 27.3607 28.1579C27.7043 27.8903 28.203 27.9521 28.4706 28.2988L30.5021 30.9256L34.4003 26.8944C34.7027 26.5809 35.2047 26.573 35.5198 26.8754C35.8333 27.1794 35.8428 27.6797 35.5388 27.9948L31.0056 32.6832C30.8536 32.8383 30.6493 32.9254 30.4356 32.9254Z" fill="#242424"/>
<path d="M31.8744 19.0419C31.4374 19.0419 31.0828 18.6872 31.0828 18.2502V11.2185L17.1951 18.1663C16.8087 18.361 16.329 18.2043 16.1326 17.8116C15.9395 17.4221 16.0962 16.9455 16.4873 16.7507L31.5198 9.22977C31.7636 9.10627 32.0565 9.12052 32.2893 9.2646C32.5236 9.40869 32.6661 9.66361 32.6661 9.93753V18.2502C32.6661 18.6872 32.3115 19.0419 31.8744 19.0419Z" fill="#242424"/>
<path d="M16.8237 33.2922C16.697 33.2922 16.5703 33.2621 16.4547 33.2003L1.42227 25.2835C1.1626 25.1473 0.999512 24.8782 0.999512 24.5836V9.93753C0.999512 9.66361 1.14201 9.40869 1.37477 9.2646C1.60594 9.12052 1.90045 9.10627 2.14428 9.22977L17.1767 16.7507C17.4443 16.8853 17.6138 17.1593 17.6138 17.4585V32.5005C17.6138 32.7776 17.4681 33.0341 17.2322 33.1782C17.1071 33.2542 16.9662 33.2922 16.8237 33.2922ZM2.58288 24.1055L16.032 31.1879V17.9478L2.58288 11.2185V24.1055Z" fill="#242424"/>
<path d="M31.8748 10.729C31.7561 10.729 31.6357 10.7021 31.5201 10.6451L16.8233 3.30148L2.14556 10.6451C1.75763 10.8383 1.27946 10.6831 1.08312 10.292C0.888367 9.90094 1.04512 9.42435 1.43621 9.22959L16.4687 1.70861C16.6919 1.59778 16.9548 1.59778 17.1764 1.70861L32.2279 9.22959C32.619 9.42593 32.7773 9.90094 32.5826 10.292C32.4432 10.5691 32.1646 10.729 31.8748 10.729Z" fill="#242424"/>
<path d="M8.98406 20.2116C8.54706 20.2116 8.19238 19.857 8.19238 19.42V13.533C8.19238 13.2338 8.3618 12.9598 8.62939 12.8253L23.6618 5.30427C24.0498 5.1111 24.5279 5.26785 24.7243 5.65895C24.919 6.05004 24.7607 6.52505 24.3696 6.72138L9.77575 14.0239V19.4215C9.77575 19.8586 9.42107 20.2116 8.98406 20.2116Z" fill="#242424"/>
<path d="M16.8238 33.291C16.5404 33.291 16.2664 33.139 16.1255 32.8698C15.9197 32.4835 16.0669 32.0037 16.4533 31.7995L19.6295 30.1148C20.0174 29.9105 20.4956 30.0562 20.6998 30.4441C20.9057 30.8304 20.7584 31.3102 20.3721 31.5144L17.1959 33.1991C17.0755 33.2609 16.9489 33.291 16.8238 33.291Z" fill="#242424"/>
</svg>
