<svg width="48" height="49" viewBox="0 0 48 49" fill="none" xmlns="http://www.w3.org/2000/svg">
<path d="M24.0574 17.6118H24.1575C25.0822 17.6152 29.7679 17.6489 31.0312 17.9887C31.4132 18.0924 31.7612 18.2945 32.0406 18.5748C32.3199 18.8552 32.5208 19.2039 32.6231 19.5862C32.7367 20.0137 32.8166 20.5796 32.8706 21.1634L32.8819 21.2804L32.9066 21.5729L32.9156 21.6899C32.9888 22.7182 32.9977 23.6812 32.9989 23.8916V23.9759C32.9977 24.1942 32.9876 25.2224 32.9066 26.2934L32.8976 26.4116L32.8875 26.5286C32.8312 27.1721 32.748 27.8111 32.6231 28.2813C32.5211 28.6638 32.3203 29.0127 32.0409 29.293C31.7615 29.5734 31.4133 29.7754 31.0312 29.8788C29.7262 30.2298 24.7661 30.2546 24.0787 30.2557H23.919C23.5714 30.2557 22.1336 30.2489 20.6261 30.1972L20.4349 30.1904L20.337 30.1859L19.9523 30.1702C18.7035 30.1151 17.5144 30.0262 16.9665 29.8777C16.5846 29.7744 16.2364 29.5726 15.9571 29.2924C15.6777 29.0122 15.4768 28.6636 15.3746 28.2813C15.2498 27.8122 15.1665 27.1721 15.1102 26.5286L15.0923 26.2934C15.0367 25.5311 15.006 24.7672 15 24.0029V23.8646C15.0023 23.6227 15.0113 22.7868 15.072 21.8643L15.0799 21.7484L15.0833 21.6899L15.0923 21.5729L15.117 21.2804L15.1283 21.1634C15.1822 20.5796 15.2621 20.0126 15.3758 19.5862C15.4778 19.2037 15.6786 18.8548 15.958 18.5745C16.2373 18.2941 16.5855 18.0921 16.9676 17.9887C17.5155 17.8424 18.7046 17.7524 19.9534 17.6962L20.1446 17.6883L20.4349 17.6782L20.6272 17.6703C21.6979 17.6359 22.769 17.6167 23.8403 17.6129H24.0574V17.6118ZM22.2 21.2231V26.6433L26.8766 23.9343L22.2 21.2231Z" fill="white"/>
<rect x="0.5" y="0.861816" width="47" height="47" rx="23.5" stroke="white" stroke-opacity="0.5"/>
</svg>
