<svg width="74" height="74" viewBox="0 0 74 74" fill="none" xmlns="http://www.w3.org/2000/svg">
<g clip-path="url(#clip0_46_513)">
<path d="M54.9042 50.3772V43.7479L57.6042 41.0703L56.6626 40.1174L54.1142 42.649L49.1542 40.1775V32.99L42.7528 29.7781L37.014 32.6531L31.2696 29.7781L25.4999 32.6531L20.4042 30.115V23.7604L25.4803 21.2224L30.5565 23.7604V27.6562H31.9042V22.9273L26.1542 20.0523V14H24.8065V20.0523L19.8859 22.5239L15.928 18.5548L14.9583 19.5077L19.0566 23.6228V30.2521L16.4014 32.9297L17.3656 33.8826L19.8803 31.351L24.8066 33.8225V41.01L31.2529 44.2219L37.0141 41.3469L42.7698 44.2219L48.5001 41.3469L53.5566 43.885V50.2396L48.4804 52.7776L43.4043 50.2396V46.3438H42.0566V51.0727L47.8066 53.9477V60H49.1543V53.9477L54.1198 51.4761L58.1113 55.4452L59.0417 54.4923L54.9042 50.3772ZM36.3065 40.1773L31.2303 42.7154L26.1542 40.1773V33.8228L31.2303 31.2847L36.3065 33.8228V40.1773ZM47.8065 40.1773L42.7303 42.7154L37.6542 40.1773V33.8228L42.7303 31.2847L47.8065 33.8228V40.1773Z" fill="#808080"/>
<path d="M24.0876 28.4648H22.6501V29.8125H24.0876V28.4648Z" fill="#808080"/>
<path d="M47.0876 48.5898H45.6501V49.9375H47.0876V48.5898Z" fill="#808080"/>
<path d="M52.0291 44.1875H50.6814V49.9375H52.0291V44.1875Z" fill="#808080"/>
<path d="M29.0291 34.125H27.6814V39.875H29.0291V34.125Z" fill="#808080"/>
</g>
<line x1="60.3891" y1="8.31401" x2="14.3891" y2="65.314" stroke="#808080"/>
<rect x="0.5" y="0.5" width="73" height="73" rx="36.5" stroke="#808080"/>
<defs>
<clipPath id="clip0_46_513">
<rect width="46" height="46" fill="white" transform="translate(14 14)"/>
</clipPath>
</defs>
</svg>
