<svg width="42" height="43" viewBox="0 0 42 43" fill="none" xmlns="http://www.w3.org/2000/svg">
<path fill-rule="evenodd" clip-rule="evenodd" d="M0.875 10.375C0.875 8.11442 2.6739 6.25 4.93182 6.25H33.5682C35.8262 6.25 37.625 8.11442 37.625 10.375V19.375C37.625 19.8582 37.2332 20.25 36.75 20.25C36.2668 20.25 35.875 19.8582 35.875 19.375V10.375C35.875 9.04575 34.8248 8 33.5682 8H4.93182C3.67519 8 2.625 9.04575 2.625 10.375V26.6251C2.625 27.9542 3.67519 29 4.93182 29H17.5C17.9832 29 18.375 29.3918 18.375 29.875C18.375 30.3582 17.9832 30.75 17.5 30.75H4.93182C2.6739 30.75 0.875 28.8856 0.875 26.6251V10.375Z" fill="#242424"/>
<path fill-rule="evenodd" clip-rule="evenodd" d="M0.875 12.375C0.875 11.8918 1.26675 11.5 1.75 11.5H36.75C37.2332 11.5 37.625 11.8918 37.625 12.375C37.625 12.8582 37.2332 13.25 36.75 13.25H1.75C1.26675 13.25 0.875 12.8582 0.875 12.375Z" fill="#242424"/>
<path fill-rule="evenodd" clip-rule="evenodd" d="M4.375 21.125C4.375 20.6418 4.76675 20.25 5.25 20.25H8.75C9.23324 20.25 9.625 20.6418 9.625 21.125C9.625 21.6082 9.23324 22 8.75 22H5.25C4.76675 22 4.375 21.6082 4.375 21.125Z" fill="#242424"/>
<path fill-rule="evenodd" clip-rule="evenodd" d="M4.375 25.5C4.375 25.0168 4.76675 24.625 5.25 24.625H12.25C12.7332 24.625 13.125 25.0168 13.125 25.5C13.125 25.9832 12.7332 26.375 12.25 26.375H5.25C4.76675 26.375 4.375 25.9832 4.375 25.5Z" fill="#242424"/>
<path fill-rule="evenodd" clip-rule="evenodd" d="M31.5 23.75C27.1507 23.75 23.625 27.2757 23.625 31.625C23.625 35.9743 27.1507 39.5 31.5 39.5C35.8493 39.5 39.375 35.9743 39.375 31.625C39.375 27.2757 35.8493 23.75 31.5 23.75ZM21.875 31.625C21.875 26.3092 26.1842 22 31.5 22C36.8158 22 41.125 26.3092 41.125 31.625C41.125 36.9408 36.8158 41.25 31.5 41.25C26.1842 41.25 21.875 36.9408 21.875 31.625Z" fill="#242424"/>
<path fill-rule="evenodd" clip-rule="evenodd" d="M34.3812 30.1312C34.723 29.7896 35.277 29.7896 35.6188 30.1312C35.9604 30.473 35.9604 31.027 35.6188 31.3688L32.1188 34.8688C31.777 35.2104 31.223 35.2104 30.8812 34.8688L28.2562 32.2438C27.9146 31.902 27.9146 31.348 28.2562 31.0062C28.598 30.6646 29.152 30.6646 29.4938 31.0062L31.5 33.0126L34.3812 30.1312Z" fill="#242424"/>
</svg>
