<svg width="41" height="41" viewBox="0 0 41 41" fill="none" xmlns="http://www.w3.org/2000/svg">
<rect x="0.5" y="0.361816" width="40" height="40" rx="20" fill="white" fill-opacity="0.1"/>
<g clip-path="url(#clip0_245_248)">
<path d="M13.4853 16.4399C13.5742 16.0501 13.7929 15.7021 14.1055 15.4528C14.4181 15.2036 14.8061 15.0678 15.2059 15.0679H25.7941C26.1939 15.0678 26.5819 15.2036 26.8945 15.4528C27.2071 15.7021 27.4257 16.0501 27.5147 16.4399L20.5 20.7273L13.4853 16.4399ZM13.4412 17.4476V23.7158L18.5615 20.5764L13.4412 17.4476ZM19.4068 21.0943L13.6097 24.6476C13.7529 24.9496 13.979 25.2047 14.2616 25.3833C14.5441 25.5618 14.8716 25.6564 15.2059 25.6561H25.7941C26.1283 25.6562 26.4557 25.5614 26.7381 25.3827C27.0205 25.204 27.2464 24.9487 27.3894 24.6467L21.5923 21.0935L20.5 21.7614L19.4068 21.0935V21.0943ZM22.4385 20.5773L27.5588 23.7158V17.4476L22.4385 20.5764V20.5773Z" fill="white"/>
</g>
<defs>
<clipPath id="clip0_245_248">
<rect width="14.1176" height="14.1176" fill="white" transform="translate(13.4412 13.3032)"/>
</clipPath>
</defs>
</svg>
