<svg width="40" height="41" viewBox="0 0 40 41" fill="none" xmlns="http://www.w3.org/2000/svg">
<path d="M9.55872 21.4167C9.63681 21.4167 9.72199 21.4096 9.80007 21.4025L11.5321 21.1754C11.6172 21.1612 11.6953 21.1399 11.7734 21.1186C13.4486 24.0431 16.6003 25.8958 20.0004 25.8958C23.4005 25.8958 26.5522 24.0431 28.2274 21.1186C28.3055 21.1399 28.3907 21.1612 28.4758 21.1754L30.2078 21.4025C30.2859 21.4096 30.3711 21.4167 30.4492 21.4167C31.3791 21.4167 32.1883 20.7211 32.309 19.777L33.0898 13.7292C33.2246 12.6999 32.4935 11.7558 31.4643 11.621L30.8751 11.5429C29.9736 6.2901 25.3952 2.37891 20.0004 2.37891C14.6057 2.37891 10.0272 6.2901 9.11863 11.55L8.53656 11.6281C7.5073 11.7629 6.78327 12.707 6.91104 13.7292L7.69186 19.777C7.81963 20.7282 8.62884 21.4167 9.55872 21.4167ZM27.0917 20.2455C25.7004 22.8293 22.9604 24.4761 20.0004 24.4761C17.0475 24.4761 14.3075 22.8293 12.9162 20.2455C13.1221 19.8906 13.2073 19.4859 13.1576 19.0742L12.4549 13.6085C13.6119 10.4568 16.6287 8.35572 20.0075 8.35572C23.3934 8.35572 26.4031 10.4639 27.5602 13.6227L26.8574 19.0813C26.7935 19.4859 26.8858 19.8906 27.0917 20.2455ZM31.2868 13.0335C31.5352 13.069 31.7198 13.2962 31.6843 13.5517L30.9035 19.5995C30.868 19.848 30.6408 20.0325 30.3853 19.997L28.6533 19.7699C28.5326 19.7557 28.4262 19.6918 28.3481 19.5924C28.27 19.493 28.2416 19.3724 28.2558 19.2517L29.0366 13.2039C29.0721 12.9555 29.3064 12.778 29.5548 12.8064L31.2868 13.0335ZM20.0004 3.79858C24.5717 3.79858 28.4687 7.00704 29.4128 11.3938C28.994 11.408 28.6036 11.5713 28.2913 11.8268C26.6516 8.84551 23.4928 6.92895 19.9933 6.92895C16.5009 6.92895 13.3421 8.84551 11.7024 11.8197C11.3901 11.5642 10.9997 11.408 10.5809 11.3938C11.5321 7.00704 15.4291 3.79858 20.0004 3.79858ZM8.72112 13.0335L10.4531 12.8135C10.4744 12.8135 10.4957 12.8064 10.5099 12.8064C10.7371 12.8064 10.9358 12.9768 10.9642 13.211L11.745 19.2588C11.7592 19.3795 11.7308 19.5001 11.6527 19.5995C11.5747 19.6989 11.4682 19.7557 11.3475 19.777L9.61551 20.0041C9.49484 20.0183 9.37417 19.9899 9.27479 19.9118C9.17541 19.8338 9.11153 19.7273 9.09733 19.6066L8.31651 13.5588C8.28812 13.2962 8.46558 13.069 8.72112 13.0335Z" fill="#242424"/>
<path d="M4.71045 37.8711H35.2902C35.6806 37.8711 36 37.5517 36 37.1613C36 32.3131 31.5493 28.0612 24.9195 26.5776C24.7704 26.5421 24.6142 26.5563 24.4794 26.6202C21.6187 27.8837 18.3819 27.8837 15.5141 26.6202C15.3722 26.5563 15.2231 26.5421 15.074 26.5776C8.45128 28.0612 4.00061 32.3131 4.00061 37.1613C4.00061 37.5517 4.32004 37.8711 4.71045 37.8711ZM15.1663 28.0186C18.2612 29.3176 21.7394 29.3176 24.8343 28.0186C30.3355 29.3105 34.1189 32.6325 34.5377 36.4514H5.45577C5.88168 32.6325 9.6651 29.3105 15.1663 28.0186Z" fill="#242424"/>
</svg>
