<svg width="48" height="49" viewBox="0 0 48 49" fill="none" xmlns="http://www.w3.org/2000/svg">
<path fill-rule="evenodd" clip-rule="evenodd" d="M16.125 20.9868C16.125 18.5015 18.1397 16.4868 20.625 16.4868H27.375C29.8603 16.4868 31.875 18.5015 31.875 20.9868V27.7368C31.875 30.2221 29.8603 32.2368 27.375 32.2368H20.625C18.1397 32.2368 16.125 30.2221 16.125 27.7368V20.9868ZM24 21.5493C23.4437 21.5493 22.9 21.7143 22.4375 22.0233C21.9749 22.3323 21.6145 22.7716 21.4016 23.2855C21.1887 23.7994 21.133 24.3649 21.2415 24.9105C21.3501 25.4561 21.6179 25.9572 22.0113 26.3506C22.4046 26.7439 22.9057 27.0118 23.4513 27.1203C23.9969 27.2288 24.5624 27.1731 25.0763 26.9602C25.5902 26.7474 26.0295 26.3869 26.3385 25.9244C26.6475 25.4618 26.8125 24.9181 26.8125 24.3618C26.8125 23.6161 26.5163 22.9009 25.9891 22.3735C25.4619 21.8461 24.7469 21.5496 24.0011 21.5493H24ZM27.75 19.4415C27.8887 19.3488 28.0519 19.2993 28.2188 19.2993C28.4425 19.2994 28.6573 19.3883 28.8155 19.5466C28.9737 19.7048 29.0625 19.9193 29.0625 20.1431C29.0625 20.3099 29.013 20.4731 28.9203 20.6118C28.8276 20.7506 28.6958 20.8587 28.5416 20.9226C28.3875 20.9865 28.2178 21.0032 28.0541 20.9706C27.8905 20.938 27.7401 20.8577 27.6221 20.7397C27.5041 20.6217 27.4238 20.4713 27.3912 20.3077C27.3587 20.144 27.3754 19.9744 27.4392 19.8202C27.5031 19.666 27.6112 19.5342 27.75 19.4415Z" fill="white"/>
<rect x="0.5" y="0.861816" width="47" height="47" rx="23.5" stroke="white" stroke-opacity="0.5"/>
</svg>
