<svg width="41" height="41" viewBox="0 0 41 41" fill="none" xmlns="http://www.w3.org/2000/svg">
<rect x="0.5" y="0.361816" width="40" height="40" rx="20" fill="white" fill-opacity="0.1"/>
<g clip-path="url(#clip0_245_243)">
<path d="M20.5001 27.4209C20.5001 27.4209 25.7942 22.4038 25.7942 18.5973C25.7942 17.1933 25.2365 15.8467 24.2436 14.8538C23.2508 13.861 21.9042 13.3032 20.5001 13.3032C19.096 13.3032 17.7494 13.861 16.7566 14.8538C15.7638 15.8467 15.206 17.1933 15.206 18.5973C15.206 22.4038 20.5001 27.4209 20.5001 27.4209ZM20.5001 21.2444C19.7981 21.2444 19.1248 20.9655 18.6284 20.4691C18.1319 19.9727 17.8531 19.2994 17.8531 18.5973C17.8531 17.8953 18.1319 17.222 18.6284 16.7256C19.1248 16.2292 19.7981 15.9503 20.5001 15.9503C21.2022 15.9503 21.8754 16.2292 22.3719 16.7256C22.8683 17.222 23.1472 17.8953 23.1472 18.5973C23.1472 19.2994 22.8683 19.9727 22.3719 20.4691C21.8754 20.9655 21.2022 21.2444 20.5001 21.2444Z" fill="white"/>
</g>
<defs>
<clipPath id="clip0_245_243">
<rect width="14.1176" height="14.1176" fill="white" transform="translate(13.4413 13.3032)"/>
</clipPath>
</defs>
</svg>
