<svg width="74" height="74" viewBox="0 0 74 74" fill="none" xmlns="http://www.w3.org/2000/svg">
<path fill-rule="evenodd" clip-rule="evenodd" d="M25.5254 61.5225C24.0352 61.5225 23.0606 61.1182 22.625 60.3164C21.8252 58.8457 23.2715 56.7705 23.5235 56.4277L33.083 40.2168V31.8174C33.083 31.5 33.3399 31.2422 33.6573 31.2422C33.9746 31.2422 34.2325 31.5 34.2325 31.8174V40.373C34.2325 40.4756 34.2051 40.5771 34.1524 40.665L24.4981 57.0381C24.4873 57.0566 24.4756 57.0742 24.4629 57.0908C24.1201 57.5498 23.2315 59.0283 23.6348 59.7676C23.8907 60.2363 24.7627 60.4443 26.0918 60.3525C26.1055 60.3525 26.1182 60.3516 26.1319 60.3516H37H47.8682C47.8819 60.3516 47.8946 60.3525 47.9082 60.3525C49.2373 60.4443 50.1104 60.2354 50.3653 59.7676C50.7393 59.0791 49.9688 57.667 49.5371 57.0908C49.5244 57.0742 49.5127 57.0566 49.502 57.0381L39.8477 40.665C39.795 40.5771 39.7676 40.4756 39.7676 40.373V31.8164C39.7676 31.5 40.0254 31.2422 40.3428 31.2422C40.6602 31.2422 40.917 31.5 40.917 31.8164V40.2168L50.4766 56.4277C50.7285 56.7705 52.1748 58.8457 51.375 60.3164C50.8809 61.2256 49.6944 61.624 47.8496 61.501H37H26.1504C25.9336 61.5156 25.7246 61.5225 25.5254 61.5225Z" fill="#808080"/>
<path fill-rule="evenodd" clip-rule="evenodd" d="M36.835 55.1973H36.7637C36.4463 55.1973 36.1895 54.9395 36.1895 54.6221C36.1895 54.3047 36.4463 54.0479 36.7637 54.0479H36.835C37.1523 54.0479 37.4092 54.3047 37.4092 54.6221C37.4092 54.9395 37.1523 55.1973 36.835 55.1973Z" fill="#808080"/>
<path fill-rule="evenodd" clip-rule="evenodd" d="M32.5713 53.7939H32.501C32.1836 53.7939 31.9258 53.5361 31.9258 53.2187C31.9258 52.9014 32.1836 52.6445 32.501 52.6445H32.5713C32.8887 52.6445 33.1465 52.9014 33.1465 53.2187C33.1465 53.5361 32.8887 53.7939 32.5713 53.7939Z" fill="#808080"/>
<path fill-rule="evenodd" clip-rule="evenodd" d="M40.3867 52.4795H40.3164C39.999 52.4795 39.7412 52.2227 39.7412 51.9043C39.7412 51.5879 39.999 51.3301 40.3164 51.3301H40.3867C40.7041 51.3301 40.9619 51.5879 40.9619 51.9043C40.9619 52.2227 40.7041 52.4795 40.3867 52.4795Z" fill="#808080"/>
<path fill-rule="evenodd" clip-rule="evenodd" d="M42.8027 56.0674H42.7314C42.4141 56.0674 42.1572 55.8096 42.1572 55.4932C42.1572 55.1758 42.4141 54.918 42.7314 54.918H42.8027C43.1201 54.918 43.377 55.1758 43.377 55.4932C43.377 55.8096 43.1201 56.0674 42.8027 56.0674Z" fill="#808080"/>
<path fill-rule="evenodd" clip-rule="evenodd" d="M32.2871 56.9561H32.2168C31.8994 56.9561 31.6416 56.6982 31.6416 56.3809C31.6416 56.0635 31.8994 55.8057 32.2168 55.8057H32.2871C32.6045 55.8057 32.8623 56.0635 32.8623 56.3809C32.8623 56.6982 32.6045 56.9561 32.2871 56.9561Z" fill="#808080"/>
<path fill-rule="evenodd" clip-rule="evenodd" d="M41.3975 32.3916H32.6025C31.3916 32.3916 30.4062 31.4062 30.4062 30.1953C30.4062 28.9834 31.3916 27.998 32.6025 27.998H41.3975C42.6084 27.998 43.5937 28.9834 43.5937 30.1953C43.5937 31.4062 42.6084 32.3916 41.3975 32.3916ZM32.6025 29.1475C32.0254 29.1475 31.5557 29.6172 31.5557 30.1953C31.5557 30.7725 32.0254 31.2422 32.6025 31.2422H41.3975C41.9746 31.2422 42.4443 30.7725 42.4443 30.1953C42.4443 29.6182 41.9746 29.1475 41.3975 29.1475H32.6025Z" fill="#808080"/>
<path fill-rule="evenodd" clip-rule="evenodd" d="M44.8809 59.1405C44.7422 59.1405 44.5987 59.1346 44.4483 59.1249H29.5528C28.211 59.2137 27.3409 58.9081 26.9659 58.2167C26.3711 57.122 27.3926 55.6327 27.5909 55.3612L30.6709 50.1376C30.7569 49.993 30.9014 49.8925 31.0665 49.8641C31.2325 49.8348 31.4024 49.8798 31.5323 49.9862C32.4805 50.7684 34.3711 51.7811 36.3799 49.7723C38.627 47.5262 40.8497 48.2811 41.9747 48.9305C42.2608 49.0956 42.5342 49.286 42.7872 49.496C42.8995 49.5887 43.002 49.6747 43.084 49.7636C43.1211 49.7997 43.1534 49.8407 43.1807 49.8866L46.4092 55.3612C46.6075 55.6327 47.629 57.122 47.0342 58.2167C46.7012 58.8309 45.9776 59.1405 44.8809 59.1405ZM37 57.9755H44.4668C44.4805 57.9755 44.4932 57.9764 44.5069 57.9774C45.3213 58.0331 45.8887 57.9178 46.0245 57.6678C46.2256 57.2977 45.7627 56.4139 45.4698 56.0233C45.4571 56.0067 45.4444 55.9891 45.4336 55.9706L42.2295 50.536C42.0098 50.33 40.9747 49.4257 39.6719 49.4169C39.6661 49.4169 39.6592 49.4169 39.6534 49.4169C38.7959 49.4169 37.9688 49.8094 37.1934 50.5848C36.0586 51.7196 34.9307 52.0946 33.9375 52.0946C32.8624 52.0946 31.9434 51.6552 31.3399 51.2665L28.5665 55.9706C28.5557 55.9891 28.544 56.0067 28.5303 56.0233C28.1797 56.495 27.7911 57.33 27.9756 57.6688C28.1114 57.9178 28.6797 58.0331 29.4942 57.9774C29.5069 57.9764 29.5196 57.9755 29.5332 57.9755H37Z" fill="#808080"/>
<path fill-rule="evenodd" clip-rule="evenodd" d="M32.3965 24.8291C30.9697 24.8291 29.8096 23.6689 29.8096 22.2422C29.8096 20.8154 30.9697 19.6543 32.3965 19.6543C33.8232 19.6543 34.9844 20.8154 34.9844 22.2422C34.9844 23.6689 33.8232 24.8291 32.3965 24.8291ZM32.3965 20.8047C31.6035 20.8047 30.959 21.4492 30.959 22.2422C30.959 23.0352 31.6035 23.6797 32.3965 23.6797C33.1895 23.6797 33.834 23.0352 33.834 22.2422C33.834 21.4492 33.1895 20.8047 32.3965 20.8047Z" fill="#808080"/>
<path fill-rule="evenodd" clip-rule="evenodd" d="M35.1436 17.6523C33.7168 17.6523 32.5557 16.4912 32.5557 15.0645C32.5557 13.6377 33.7168 12.4766 35.1436 12.4766C36.5703 12.4766 37.7305 13.6377 37.7305 15.0645C37.7305 16.4912 36.5703 17.6523 35.1436 17.6523ZM35.1436 13.626C34.3506 13.626 33.7051 14.2715 33.7051 15.0645C33.7051 15.8574 34.3506 16.502 35.1436 16.502C35.9365 16.502 36.5811 15.8574 36.5811 15.0645C36.5811 14.2715 35.9365 13.626 35.1436 13.626Z" fill="#808080"/>
<path fill-rule="evenodd" clip-rule="evenodd" d="M40.2852 26.0781C38.8584 26.0781 37.6982 24.917 37.6982 23.4902C37.6982 22.0635 38.8584 20.9023 40.2852 20.9023C41.7129 20.9023 42.873 22.0635 42.873 23.4902C42.873 24.917 41.7119 26.0781 40.2852 26.0781ZM40.2852 22.0527C39.4932 22.0527 38.8477 22.6973 38.8477 23.4902C38.8477 24.2832 39.4932 24.9287 40.2852 24.9287C41.0791 24.9287 41.7236 24.2832 41.7236 23.4902C41.7236 22.6973 41.0791 22.0527 40.2852 22.0527Z" fill="#808080"/>
<path fill-rule="evenodd" clip-rule="evenodd" d="M43.3262 18.7666C42.127 18.7666 41.1523 17.791 41.1523 16.5918C41.1523 15.3936 42.127 14.418 43.3262 14.418C44.5244 14.418 45.5 15.3936 45.5 16.5918C45.5 17.791 44.5244 18.7666 43.3262 18.7666ZM43.3262 15.5684C42.7607 15.5684 42.3018 16.0273 42.3018 16.5918C42.3018 17.1572 42.7607 17.6172 43.3262 17.6172C43.8906 17.6172 44.3506 17.1572 44.3506 16.5918C44.3506 16.0273 43.8906 15.5684 43.3262 15.5684Z" fill="#808080"/>
<line x1="60.3891" y1="8.31401" x2="14.3891" y2="65.314" stroke="#808080"/>
<rect x="0.5" y="0.5" width="73" height="73" rx="36.5" stroke="#808080"/>
</svg>
