<svg width="74" height="74" viewBox="0 0 74 74" fill="none" xmlns="http://www.w3.org/2000/svg">
<path d="M20.8673 44.5332C21.1212 44.1995 21.5442 44 21.9995 44C22.4549 44 22.8778 44.1991 23.1318 44.5323C23.9946 45.662 26 48.4681 26 50.1264C26 52.2625 24.2059 54 22 54C19.7941 54 18 52.2626 18 50.1264C17.9995 48.4686 20.0054 45.6624 20.8673 44.5332Z" fill="#808080"/>
<path d="M39.7032 43.7508C37.8041 43.7486 35.9314 43.3061 34.2321 42.4583C33.314 42.0058 32.3378 41.682 31.3313 41.4962C31.1365 41.4612 30.9636 41.3502 30.8507 41.1877C30.7378 41.0252 30.694 40.8244 30.7291 40.6297C30.7641 40.4349 30.8751 40.262 31.0377 40.1491C31.2002 40.0362 31.4009 39.9924 31.5957 40.0275C32.7387 40.2302 33.8468 40.5962 34.8857 41.1144C36.3843 41.8479 38.0309 42.2293 39.6995 42.2293C41.3681 42.2293 43.0146 41.8479 44.5133 41.1144C45.5933 40.5753 46.7462 40.1968 47.9355 39.9908C48.0319 39.9744 48.1307 39.9771 48.226 39.9989C48.3214 40.0206 48.4116 40.061 48.4913 40.1176C48.5711 40.1742 48.639 40.2459 48.691 40.3288C48.7431 40.4116 48.7783 40.5039 48.7947 40.6003C48.8111 40.6967 48.8083 40.7955 48.7866 40.8908C48.7648 40.9862 48.7245 41.0764 48.6679 41.1561C48.6113 41.2359 48.5395 41.3038 48.4567 41.3558C48.3739 41.4079 48.2816 41.4431 48.1852 41.4595C47.1396 41.6377 46.1254 41.9667 45.1742 42.4362C43.4768 43.2917 41.604 43.7417 39.7032 43.7508Z" fill="#808080"/>
<path d="M47.8841 55.4934C47.0165 55.4964 46.1569 55.3272 45.3552 54.9957C44.5535 54.6642 43.8255 54.1769 43.2134 53.562L25.5884 35.937C25.4517 35.7994 25.3749 35.6133 25.3749 35.4192C25.3749 35.2252 25.4517 35.0391 25.5884 34.9015L33.8648 26.559C34.0024 26.4222 34.1886 26.3455 34.3826 26.3455C34.5766 26.3455 34.7627 26.4222 34.9003 26.559L52.5253 44.184C53.1393 44.7978 53.6263 45.5265 53.9586 46.3285C54.2909 47.1305 54.4619 47.9902 54.4619 48.8583C54.4619 49.7264 54.2909 50.5861 53.9586 51.3881C53.6263 52.1901 53.1393 52.9188 52.5253 53.5326C51.9189 54.149 51.1967 54.6395 50.4003 54.9759C49.6038 55.3124 48.7487 55.4883 47.8841 55.4934ZM27.1159 35.3862L44.2489 52.5192C44.7263 52.9966 45.293 53.3753 45.9167 53.6336C46.5404 53.892 47.2089 54.025 47.8841 54.025C48.5592 54.025 49.2277 53.892 49.8514 53.6336C50.4751 53.3753 51.0418 52.9966 51.5192 52.5192C51.9966 52.0418 52.3753 51.4751 52.6337 50.8514C52.8921 50.2276 53.025 49.5591 53.025 48.884C53.025 48.2089 52.8921 47.5404 52.6337 46.9167C52.3753 46.2929 51.9966 45.7262 51.5192 45.2489L34.3862 28.1159L27.1159 35.3862Z" fill="#808080"/>
<path d="M24.0022 37.5893C23.7117 37.59 23.424 37.5333 23.1555 37.4224C22.8871 37.3115 22.6432 37.1486 22.438 36.9431L20.367 34.8648C19.9545 34.4517 19.7227 33.8917 19.7227 33.3079C19.7227 32.7241 19.9545 32.1641 20.367 31.751L30.7511 21.367C31.1642 20.9544 31.7241 20.7227 32.308 20.7227C32.8918 20.7227 33.4518 20.9544 33.8648 21.367L35.9431 23.4379C36.1485 23.6426 36.3115 23.8858 36.4227 24.1536C36.5339 24.4214 36.5911 24.7085 36.5911 24.9985C36.5911 25.2884 36.5339 25.5755 36.4227 25.8433C36.3115 26.1111 36.1485 26.3543 35.9431 26.559L25.5591 36.9431C25.1463 37.3563 24.5863 37.5888 24.0022 37.5893ZM32.308 22.1674C32.2113 22.1669 32.1155 22.1854 32.026 22.2219C31.9366 22.2585 31.8552 22.3123 31.7866 22.3804L21.4025 32.7865C21.3337 32.8548 21.279 32.936 21.2417 33.0255C21.2045 33.115 21.1853 33.211 21.1853 33.3079C21.1853 33.4049 21.2045 33.5008 21.2417 33.5903C21.279 33.6798 21.3337 33.761 21.4025 33.8293L23.4808 35.9002C23.6184 36.037 23.8045 36.1138 23.9985 36.1138C24.1925 36.1138 24.3787 36.037 24.5162 35.9002L34.9003 25.5162C35.0371 25.3786 35.1139 25.1925 35.1139 24.9985C35.1139 24.8044 35.0371 24.6183 34.9003 24.4807L32.8294 22.4024C32.7608 22.3344 32.6794 22.2805 32.5899 22.244C32.5004 22.2074 32.4046 22.1889 32.308 22.1895V22.1674Z" fill="#808080"/>
<line x1="60.3891" y1="8.31401" x2="14.3891" y2="65.314" stroke="#808080"/>
<rect x="0.5" y="0.5" width="73" height="73" rx="36.5" stroke="#808080"/>
</svg>
